<?xml version="1.0" standalone="no"?>
<!DOCTYPE svg PUBLIC "-//W3C//DTD SVG 20010904//EN"
 "http://www.w3.org/TR/2001/REC-SVG-20010904/DTD/svg10.dtd">
<svg version="1.0" xmlns="http://www.w3.org/2000/svg"
 width="408.000000pt" height="408.000000pt" viewBox="0 0 408.000000 408.000000"
 preserveAspectRatio="xMidYMid meet">
<metadata>
Created by potrace 1.11, written by Peter Selinger 2001-2013
</metadata>
<g transform="translate(0.000000,408.000000) scale(0.100000,-0.100000)"
fill="#000000" stroke="none">
<path d="M1999 3966 c-2 -2 -47 -7 -99 -10 -52 -4 -102 -9 -110 -11 -8 -2 -35
-6 -60 -9 -47 -6 -55 -7 -135 -26 -27 -6 -57 -13 -65 -15 -8 -2 -34 -10 -58
-19 -23 -8 -43 -15 -45 -15 -1 0 -15 -4 -30 -10 -16 -6 -32 -9 -37 -6 -5 3
-10 2 -12 -2 -1 -5 -24 -18 -50 -30 -34 -16 -48 -19 -52 -10 -3 8 -5 7 -5 -3
-1 -8 -27 -26 -59 -39 -31 -14 -69 -34 -84 -44 -15 -12 -32 -16 -40 -12 -7 5
-10 5 -6 0 7 -7 -51 -55 -67 -55 -3 0 -15 -9 -27 -19 -11 -11 -27 -17 -35 -14
-7 3 -13 1 -11 -4 3 -11 -55 -63 -70 -63 -5 0 -13 -7 -16 -16 -3 -8 -11 -12
-16 -9 -6 4 -9 1 -8 -7 2 -7 -5 -12 -14 -12 -10 1 -16 -1 -15 -5 3 -9 -187
-196 -196 -193 -5 1 -6 -1 -3 -6 7 -11 -50 -73 -59 -64 -5 4 -6 2 -2 -3 8 -14
-9 -40 -25 -40 -7 0 -13 -7 -13 -15 -1 -18 -37 -80 -47 -80 -5 0 -8 -7 -8 -15
0 -8 -4 -15 -8 -15 -5 0 -19 -22 -32 -50 -13 -27 -28 -46 -33 -43 -6 4 -7 1
-3 -6 5 -7 1 -20 -7 -29 -8 -9 -18 -27 -21 -39 -4 -13 -11 -23 -15 -23 -4 0
-8 -6 -8 -12 0 -7 -12 -39 -27 -70 -14 -31 -26 -62 -26 -67 0 -6 -5 -11 -11
-11 -5 0 -8 -3 -5 -8 7 -12 -30 -113 -39 -104 -5 4 -5 2 -2 -5 8 -13 -16 -117
-25 -108 -3 3 -3 -6 -1 -20 3 -15 1 -25 -6 -25 -7 0 -10 -4 -6 -9 7 -13 -6
-92 -14 -86 -4 2 -5 -9 -3 -26 2 -16 -1 -36 -8 -44 -8 -10 -9 -15 -2 -15 6 0
9 -6 7 -12 -9 -25 -14 -105 -14 -228 1 -183 3 -220 13 -220 5 0 2 -8 -5 -17
-8 -9 -9 -14 -3 -10 8 4 14 -13 18 -51 4 -31 18 -104 33 -162 14 -58 26 -113
25 -123 0 -10 4 -15 10 -11 7 5 9 1 5 -9 -4 -10 -2 -17 4 -17 6 0 9 -7 5 -15
-3 -8 -1 -15 4 -15 6 0 10 -6 10 -13 0 -8 7 -28 16 -45 8 -18 12 -37 8 -43 -5
-8 -3 -9 6 -4 10 6 12 3 8 -12 -4 -13 2 -27 14 -37 12 -11 17 -24 13 -34 -3
-9 -3 -13 1 -9 8 7 51 -63 56 -90 2 -9 13 -28 26 -41 12 -14 20 -27 18 -30 -3
-2 2 -11 10 -19 8 -8 11 -19 8 -25 -4 -6 -2 -8 3 -5 13 8 56 -60 48 -74 -4 -5
1 -6 9 -3 9 3 17 -3 21 -18 4 -13 11 -25 14 -28 4 -3 22 -25 41 -50 19 -25 45
-53 57 -63 13 -10 23 -25 23 -33 0 -9 5 -12 12 -8 8 5 9 2 5 -10 -4 -9 -3 -15
2 -11 12 7 87 -64 83 -79 -2 -6 -1 -8 3 -4 10 9 45 -24 38 -35 -3 -6 -1 -7 6
-3 13 9 83 -48 73 -59 -4 -4 -2 -5 5 -3 13 3 45 -16 77 -47 11 -12 23 -21 26
-21 5 0 43 -23 90 -53 14 -9 37 -23 52 -30 15 -8 25 -19 21 -24 -3 -6 -1 -7 5
-3 12 7 62 -13 62 -26 0 -5 4 -7 9 -4 4 3 36 -8 70 -24 34 -17 67 -30 74 -30
8 0 17 -3 21 -7 3 -4 12 -8 19 -10 37 -8 142 -47 145 -54 2 -4 10 -5 18 -2 8
3 22 2 32 -2 18 -8 22 -9 90 -20 57 -9 77 -13 77 -15 0 -1 27 -4 60 -7 33 -2
65 -9 72 -14 7 -7 14 -6 18 1 5 8 10 8 20 0 9 -8 15 -8 20 0 3 6 11 7 17 4 6
-4 52 -6 102 -5 50 2 125 4 168 4 42 1 74 5 72 9 -3 4 4 7 13 7 31 -1 133 17
140 24 3 4 13 1 21 -6 13 -10 14 -9 7 2 -6 11 -2 13 18 9 15 -3 24 -2 22 2 -3
5 28 16 68 25 39 10 77 22 84 27 7 5 17 7 23 3 5 -3 10 -1 10 4 0 6 5 11 12
11 46 0 394 186 475 255 37 31 43 35 48 35 3 0 29 22 58 50 28 27 58 50 66 50
8 0 12 2 9 5 -3 3 27 39 66 78 81 83 130 144 147 181 7 14 15 26 18 26 4 0 17
18 31 39 13 22 28 38 32 35 4 -3 5 2 2 10 -3 9 -1 16 5 16 6 0 11 7 11 15 0 7
7 18 16 23 9 5 15 12 15 15 -3 18 0 27 12 39 7 7 21 32 31 55 10 23 22 40 26
38 4 -3 7 1 6 8 -2 17 56 157 63 153 3 -2 7 9 7 26 1 17 7 34 13 38 7 4 12 11
12 16 -2 21 12 74 19 74 5 0 6 10 2 22 -3 12 -1 19 4 15 5 -3 9 7 8 21 -1 15
1 32 5 37 3 6 7 21 9 35 1 14 5 32 9 40 3 8 5 26 4 39 -2 19 1 22 15 17 14 -5
15 -4 4 8 -8 11 -10 31 -5 68 4 29 9 67 11 83 5 50 5 278 0 310 -10 61 -19
151 -20 187 -1 20 -4 34 -8 31 -5 -2 -8 4 -9 14 -1 22 -3 33 -24 103 -9 30
-17 66 -18 80 -1 14 -6 28 -10 31 -5 3 -10 12 -11 20 -4 18 -14 44 -38 98 -10
24 -17 50 -14 58 4 9 2 11 -6 7 -8 -5 -9 -2 -5 10 4 9 3 15 -2 12 -11 -7 -23
22 -14 36 3 7 1 8 -5 4 -7 -4 -12 -3 -12 3 0 6 -13 32 -29 59 -22 38 -26 53
-18 61 9 9 8 11 -3 7 -14 -6 -44 32 -47 58 -1 5 -5 12 -10 15 -22 16 -63 82
-57 93 4 6 3 8 -4 4 -13 -8 -55 48 -44 59 4 5 2 5 -4 2 -7 -4 -18 3 -27 16 -8
12 -40 48 -70 81 -31 32 -54 63 -51 68 3 4 1 7 -4 6 -9 -3 -88 61 -144 115
-10 9 -22 17 -27 17 -5 0 -14 7 -21 15 -14 16 -150 107 -225 150 -27 15 -53
32 -56 37 -3 6 -9 9 -13 8 -13 -4 -66 22 -66 32 0 5 -5 6 -10 3 -6 -3 -24 4
-42 16 -17 13 -29 18 -25 12 4 -6 -25 2 -64 18 -39 16 -78 29 -86 29 -8 0 -11
5 -7 12 4 6 3 8 -4 5 -5 -4 -38 0 -71 9 -76 19 -98 24 -136 30 -16 3 -51 9
-78 14 -26 6 -51 9 -55 9 -4 -1 -9 0 -12 1 -12 5 -98 10 -184 11 -33 0 -63 2
-67 4 -3 3 -8 3 -10 1z"/>
</g>
</svg>
